# xmcd
#
# Track frame offsets: 
#        150
#        11400
#        20101
#        33386
#        44430
#        56806
#        66781
#        67697
#        77857
#        80704
#        88583
#        100134
#        103291
#        113331
#        115403
#        124232
#        126277
#        136247
#        136737
#        144979
#
# Disc length: 1953 seconds
#
# Revision: 0
# Processed by: cddbd v1.5.2PL0 Copyright (c) Steve Scherf et al.
# Submitted via: ExactAudioCopy v0.95b3
#
DISCID=15079f14
DTITLE=The Beatles  - Way Beyond Compare - Episode 22 Pop Go The Beatl
DTITLE=es 6 and 7 (3 July 1963)  FLAC
DYEAR=1900
DGENRE=
TTITLE0=Intro_Sweet Little Sixteen
TTITLE1=A Taste Of Honey
TTITLE2=Nothin' Shakin (But The Leaves On The Trees)
TTITLE3=Love Me Do
TTITLE4=Lonesome Tears In My Eyes
TTITLE5=So How Come (No One Loves Me)_Outro
TTITLE6=Not To Mention Harry And His Box..._ [BBC-Radio]
TTITLE7=Memphis, Tennessee [BBC-Radio]
TTITLE8=Do You Like The Flowerpot Men...__ [BBC-Radio]
TTITLE9=Do You Want To Know A Secret [BBC-Radio]
TTITLE10=Intro of The Searchers_Sweets For My Sweet
TTITLE11=Dear, Wack..._ [BBC-Radio]
TTITLE12=Til There Was You [BBC-Radio]
TTITLE13=Set Fire To That Lot..._ [BBC-Radio]
TTITLE14=Matchbox [BBC-Radio]
TTITLE15=Something You Can't Get On The National Health..._ [BBC-Radio
TTITLE15=]
TTITLE16=Please Mr. Postman [BBC-Radio]
TTITLE17=Back To Those Old, Seasoned Campaigners..._ [BBC-Radio]
TTITLE18=The Hippy Hippy Shake [BBC-Radio]
TTITLE19=Outro... [BBC-Radio]
EXTD=
EXTT0=
EXTT1=
EXTT2=
EXTT3=
EXTT4=
EXTT5=
EXTT6=
EXTT7=
EXTT8=
EXTT9=
EXTT10=
EXTT11=
EXTT12=
EXTT13=
EXTT14=
EXTT15=
EXTT16=
EXTT17=
EXTT18=
EXTT19=
PLAYORDER=
